<mxfile host="app.diagrams.net" modified="2022-05-27T18:13:58.660Z" agent="5.0 (Windows NT 10.0; Win64; x64) AppleWebKit/537.36 (KHTML, like Gecko) Chrome/101.0.4951.67 Safari/537.36" etag="sA9K8HsoJcI8u-mKgG10" version="18.1.3" type="github">
  <diagram id="TIwFLtDdvszJhbBEy6wE" name="Page-1">
    <mxGraphModel dx="1038" dy="497" grid="1" gridSize="10" guides="1" tooltips="1" connect="1" arrows="1" fold="1" page="1" pageScale="1" pageWidth="850" pageHeight="1100" math="0" shadow="0">
      <root>
        <mxCell id="0" />
        <mxCell id="1" parent="0" />
        <mxCell id="JWOy4Nl12caiLx8iJXzI-15" value="" style="edgeStyle=orthogonalEdgeStyle;rounded=0;orthogonalLoop=1;jettySize=auto;html=1;" edge="1" parent="1" source="JWOy4Nl12caiLx8iJXzI-1" target="JWOy4Nl12caiLx8iJXzI-14">
          <mxGeometry relative="1" as="geometry" />
        </mxCell>
        <object label="Usager&lt;br&gt;" id="JWOy4Nl12caiLx8iJXzI-1">
          <mxCell style="shape=umlActor;verticalLabelPosition=bottom;verticalAlign=top;html=1;outlineConnect=0;shadow=0;sketch=0;" vertex="1" parent="1">
            <mxGeometry x="60" y="50" width="60" height="100" as="geometry" />
          </mxCell>
        </object>
        <mxCell id="JWOy4Nl12caiLx8iJXzI-14" value="&lt;span style=&quot;color: rgb(36, 41, 46); font-family: -apple-system, BlinkMacSystemFont, &amp;quot;Segoe UI&amp;quot;, Helvetica, Arial, sans-serif, &amp;quot;Apple Color Emoji&amp;quot;, &amp;quot;Segoe UI Emoji&amp;quot;; font-size: 16px; text-align: left; background-color: rgb(255, 255, 255);&quot;&gt;consulter&lt;br&gt;la liste des documents&lt;br&gt;&lt;/span&gt;" style="ellipse;whiteSpace=wrap;html=1;verticalAlign=top;shadow=0;sketch=0;" vertex="1" parent="1">
          <mxGeometry x="340" y="60" width="230" height="80" as="geometry" />
        </mxCell>
      </root>
    </mxGraphModel>
  </diagram>
</mxfile>
